<svg width="25" height="25" viewBox="0 0 25 25" fill="none" xmlns="http://www.w3.org/2000/svg">
<path d="M15.1988 3.71752C15.2788 3.69327 15.3531 3.65324 15.4173 3.59978C15.4815 3.54632 15.5344 3.48052 15.5727 3.40628C15.6111 3.33203 15.6342 3.25085 15.6406 3.16753C15.6471 3.0842 15.6367 3.00044 15.6102 2.92118C15.5837 2.84192 15.5416 2.76879 15.4863 2.7061C15.4311 2.6434 15.3638 2.59243 15.2885 2.5562C15.2132 2.51996 15.1314 2.49919 15.0479 2.49513C14.9644 2.49106 14.881 2.50377 14.8025 2.53252C13.6313 2.92252 12.9 3.88502 12.47 4.91627C12.412 5.05555 12.3591 5.1969 12.3113 5.34002C12.0771 4.89646 11.7775 4.49067 11.4225 4.13627C10.9416 3.65537 10.3677 3.27764 9.73579 3.02617C9.1039 2.77471 8.42735 2.65479 7.74752 2.67377C7.02252 2.69377 6.44377 3.27377 6.42377 3.99752C6.4048 4.67734 6.52471 5.35389 6.77618 5.98578C7.02765 6.61767 7.40538 7.19162 7.88627 7.67252L7.92502 7.71002C6.87484 7.93709 5.92573 8.49643 5.21833 9.30515C4.51092 10.1139 4.08285 11.129 3.99752 12.2L3.99002 12.2925C3.825 14.3515 4.26373 16.414 5.25252 18.2275L5.70252 19.05C5.71419 19.0717 5.72752 19.0925 5.74252 19.1125L6.99252 20.865C7.27583 21.2618 7.64217 21.5921 8.06607 21.8329C8.48996 22.0737 8.96123 22.2193 9.4471 22.2595C9.93296 22.2997 10.4218 22.2336 10.8795 22.0657C11.3372 21.8979 11.7528 21.6323 12.0975 21.2875C12.1505 21.2346 12.2133 21.1926 12.2825 21.1639C12.3516 21.1352 12.4258 21.1205 12.5006 21.1205C12.5755 21.1205 12.6497 21.1352 12.7188 21.1639C12.788 21.1926 12.8508 21.2346 12.9038 21.2875C13.2485 21.6323 13.6641 21.8979 14.1218 22.0657C14.5795 22.2336 15.0683 22.2997 15.5542 22.2595C16.0401 22.2193 16.5113 22.0737 16.9352 21.8329C17.3591 21.5921 17.7255 21.2618 18.0088 20.865L19.2588 19.1138L19.2988 19.05L19.7475 18.2275C20.7363 16.414 21.175 14.3515 21.01 12.2925L21.0038 12.2C20.9485 11.5097 20.7504 10.8385 20.422 10.2288C20.0937 9.61909 19.6423 9.08424 19.0964 8.65813C18.5506 8.23202 17.9222 7.92394 17.251 7.75341C16.5798 7.58289 15.8806 7.55364 15.1975 7.66752L13.1263 8.01252C13.1388 7.16127 13.2888 6.20377 13.625 5.39627C13.975 4.55252 14.495 3.95252 15.1975 3.71752M8.63502 11.2175C8.44312 11.2782 8.26512 11.3763 8.1113 11.506C7.95748 11.6358 7.83087 11.7948 7.73877 11.9738C7.50752 12.4088 7.34877 13.1263 7.49502 14.2975C7.51143 14.4599 7.46367 14.6222 7.36196 14.7499C7.26025 14.8775 7.11265 14.9603 6.95071 14.9805C6.78877 15.0008 6.62534 14.9569 6.49534 14.8582C6.36534 14.7595 6.27909 14.6139 6.25502 14.4525C6.08877 13.1225 6.24252 12.1213 6.63627 11.385C7.03627 10.635 7.64502 10.23 8.24002 10.0313C8.39733 9.97888 8.569 9.99114 8.71727 10.0653C8.86554 10.1395 8.97827 10.2696 9.03065 10.4269C9.08303 10.5842 9.07077 10.7559 8.99658 10.9041C8.92238 11.0524 8.79233 11.1651 8.63502 11.2175Z" fill="#FF383C"/>
</svg>
