<svg width="24" height="24" viewBox="0 0.9 29 29" fill="none" xmlns="http://www.w3.org/2000/svg">
<path fill-rule="evenodd" clip-rule="evenodd" d="M13.6644 26.8993L13.6699 26.9048L13.6735 26.9084C13.9113 27.0886 14.2016 27.1862 14.5 27.1862C14.7984 27.1862 15.0887 27.0886 15.3265 26.9084L15.3301 26.9048L15.3356 26.8993L15.3573 26.883C15.474 26.7929 15.5888 26.7005 15.7017 26.6057C17.053 25.4665 18.2946 24.2031 19.4101 22.8321C21.4056 20.3634 23.5625 16.7747 23.5625 12.6875C23.5625 10.284 22.6077 7.97889 20.9082 6.27934C19.2086 4.5798 16.9035 3.625 14.5 3.625C12.0965 3.625 9.79139 4.5798 8.09184 6.27934C6.3923 7.97889 5.4375 10.284 5.4375 12.6875C5.4375 16.7747 7.59437 20.3634 9.59175 22.8321C10.7072 24.2031 11.9488 25.4665 13.3001 26.6057L13.6427 26.883L13.6644 26.8993ZM14.5 15.4063C14.857 15.4063 15.2106 15.3359 15.5404 15.1993C15.8703 15.0627 16.17 14.8624 16.4224 14.6099C16.6749 14.3575 16.8752 14.0578 17.0118 13.7279C17.1484 13.3981 17.2187 13.0445 17.2188 12.6875C17.2187 12.3305 17.1484 11.9769 17.0118 11.6471C16.8752 11.3172 16.6749 11.0175 16.4224 10.7651C16.17 10.5126 15.8703 10.3123 15.5404 10.1757C15.2106 10.0391 14.857 9.96875 14.5 9.96875C13.7789 9.96875 13.0874 10.2552 12.5776 10.7651C12.0677 11.2749 11.7812 11.9664 11.7812 12.6875C11.7812 13.4086 12.0677 14.1001 12.5776 14.6099C13.0874 15.1198 13.7789 15.4063 14.5 15.4063Z" fill="#593728" fill-opacity="0.8"/>
</svg>
